<svg xmlns="http://www.w3.org/2000/svg" version="1.1" xmlns:xlink="http://www.w3.org/1999/xlink" xmlns:svgjs="http://svgjs.com/svgjs" width="1440" height="559" preserveAspectRatio="none" viewBox="0 0 1440 559"><g mask="url(&quot;#SvgjsMask5729&quot;)" fill="none"><rect width="1440" height="559" x="0" y="0" fill="#0e2a47"></rect><rect width="264" height="264" clip-path="url(&quot;#SvgjsClipPath5730&quot;)" x="252.54" y="-9.72" fill="url(#SvgjsPattern5731)" transform="rotate(300.76, 384.54, 122.28)"></rect><rect width="288" height="288" clip-path="url(&quot;#SvgjsClipPath5732&quot;)" x="203.35" y="7.19" fill="url(#SvgjsPattern5733)" transform="rotate(25.13, 347.35, 151.19)"></rect><rect width="360" height="360" clip-path="url(&quot;#SvgjsClipPath5734&quot;)" x="1059.69" y="72.91" fill="url(#SvgjsPattern5735)" transform="rotate(275.61, 1239.69, 252.91)"></rect><rect width="102.8" height="102.8" clip-path="url(&quot;#SvgjsClipPath5736&quot;)" x="1383.62" y="-38.27" fill="url(#SvgjsPattern5737)" transform="rotate(142.41, 1435.02, 13.13)"></rect><path d="M100.39 392.93L106.14 404.38 96.24 412.5 101.98 423.94 92.08 432.06 97.83 443.51 87.93 451.63" stroke="#e73635" stroke-width="2.15" stroke-dasharray="3, 3"></path><path d="M822.29 165.33L810.05 161.56 811.05 148.79 798.81 145.01 799.81 132.25 787.57 128.47 788.57 115.7M828.9 160.84L816.67 157.06 817.67 144.29 805.43 140.52 806.43 127.75 794.19 123.97 795.19 111.21" stroke="#d3b714" stroke-width="2.45" stroke-dasharray="2, 2"></path><path d="M254.81 283.34a5.6 5.6 0 1 0 10.22 4.58 5.6 5.6 0 1 0-10.22-4.58zM269.41 289.89a5.6 5.6 0 1 0 10.21 4.58 5.6 5.6 0 1 0-10.21-4.58zM284 296.44a5.6 5.6 0 1 0 10.22 4.59 5.6 5.6 0 1 0-10.22-4.59zM298.6 302.99a5.6 5.6 0 1 0 10.22 4.59 5.6 5.6 0 1 0-10.22-4.59zM219.06 284.83a5.6 5.6 0 1 0 10.22 4.59 5.6 5.6 0 1 0-10.22-4.59zM233.66 291.38a5.6 5.6 0 1 0 10.22 4.59 5.6 5.6 0 1 0-10.22-4.59zM248.26 297.93a5.6 5.6 0 1 0 10.21 4.59 5.6 5.6 0 1 0-10.21-4.59zM262.85 304.49a5.6 5.6 0 1 0 10.22 4.58 5.6 5.6 0 1 0-10.22-4.58zM183.32 286.33a5.6 5.6 0 1 0 10.21 4.58 5.6 5.6 0 1 0-10.21-4.58zM197.91 292.88a5.6 5.6 0 1 0 10.22 4.58 5.6 5.6 0 1 0-10.22-4.58zM212.51 299.43a5.6 5.6 0 1 0 10.22 4.59 5.6 5.6 0 1 0-10.22-4.59zM227.11 305.98a5.6 5.6 0 1 0 10.22 4.59 5.6 5.6 0 1 0-10.22-4.59z" fill="#d3b714"></path><rect width="168" height="168" clip-path="url(&quot;#SvgjsClipPath5738&quot;)" x="406.15" y="18.33" fill="url(#SvgjsPattern5739)" transform="rotate(82.9, 490.15, 102.33)"></rect><rect width="142.52" height="142.52" clip-path="url(&quot;#SvgjsClipPath5740&quot;)" x="23" y="190.76" fill="url(#SvgjsPattern5741)" transform="rotate(71.5, 94.26, 262.02)"></rect><circle r="58.64232360022407" cx="537.88" cy="374.61" stroke="#e73635" stroke-width="1"></circle><circle r="93.15753060800371" cx="1289.36" cy="481.6" fill="#e73635"></circle><path d="M1171.29 460.67L1182.19 467.4 1178.02 479.51 1188.92 486.23 1184.76 498.34 1195.66 505.06 1191.49 517.17M1163.75 463.37L1174.65 470.09 1170.49 482.2 1181.39 488.92 1177.22 501.03 1188.12 507.75 1183.96 519.86" stroke="#d3b714" stroke-width="1.87"></path></g><defs><mask id="SvgjsMask5729"><rect width="1440" height="559" fill="#ffffff"></rect></mask><pattern x="0" y="0" width="6" height="6" patternUnits="userSpaceOnUse" id="SvgjsPattern5731"><path d="M0 6L3 0L6 6" stroke="#d3b714" fill="none"></path></pattern><clipPath id="SvgjsClipPath5730"><circle r="66" cx="384.54" cy="122.28"></circle></clipPath><pattern x="0" y="0" width="288" height="6" patternUnits="userSpaceOnUse" id="SvgjsPattern5733"><rect width="288" height="3" x="0" y="0" fill="#d3b714"></rect><rect width="288" height="3" x="0" y="3" fill="rgba(0, 0, 0, 0)"></rect></pattern><clipPath id="SvgjsClipPath5732"><circle r="72" cx="347.35" cy="151.19"></circle></clipPath><pattern x="0" y="0" width="360" height="6" patternUnits="userSpaceOnUse" id="SvgjsPattern5735"><rect width="360" height="3" x="0" y="0" fill="#e73635"></rect><rect width="360" height="3" x="0" y="3" fill="rgba(0, 0, 0, 0)"></rect></pattern><clipPath id="SvgjsClipPath5734"><circle r="90" cx="1239.69" cy="252.91"></circle></clipPath><pattern x="0" y="0" width="10.28" height="10.28" patternUnits="userSpaceOnUse" id="SvgjsPattern5737"><path d="M0 10.28L5.14 0L10.28 10.28" stroke="#037b0b" fill="none"></path></pattern><clipPath id="SvgjsClipPath5736"><circle r="25.7" cx="1435.02" cy="13.13"></circle></clipPath><pattern x="0" y="0" width="168" height="6" patternUnits="userSpaceOnUse" id="SvgjsPattern5739"><rect width="168" height="3" x="0" y="0" fill="#037b0b"></rect><rect width="168" height="3" x="0" y="3" fill="rgba(0, 0, 0, 0)"></rect></pattern><clipPath id="SvgjsClipPath5738"><circle r="42" cx="490.15" cy="102.33"></circle></clipPath><pattern x="0" y="0" width="142.52" height="10.18" patternUnits="userSpaceOnUse" id="SvgjsPattern5741"><rect width="142.52" height="5.09" x="0" y="0" fill="#037b0b"></rect><rect width="142.52" height="5.09" x="0" y="5.09" fill="rgba(0, 0, 0, 0)"></rect></pattern><clipPath id="SvgjsClipPath5740"><circle r="35.63" cx="94.26" cy="262.02"></circle></clipPath></defs></svg>